<svg viewBox="0 0 32 32" xmlns="http://www.w3.org/2000/svg">
  <defs>
    <linearGradient id="logoGradient" x1="0%" y1="0%" x2="100%" y2="100%">
      <stop offset="0%" style="stop-color:#00ffff"/>
      <stop offset="100%" style="stop-color:#39ff14"/>
    </linearGradient>
  </defs>
  
  <!-- Background circle -->
  <circle cx="16" cy="16" r="16" fill="url(#logoGradient)"/>
  
  <!-- Main "D" shape -->
  <path d="M6 6h8c5.5 0 10 4.5 10 10s-4.5 10-10 10H6V6zm4 4v12h4c3.3 0 6-2.7 6-6s-2.7-6-6-6h-4z" fill="#000000"/>
  
  <!-- Circuit pattern overlay -->
  <g stroke="#000000" stroke-width="0.5" fill="none" opacity="0.3">
    <circle cx="8" cy="8" r="0.5"/>
    <circle cx="24" cy="8" r="0.5"/>
    <circle cx="8" cy="24" r="0.5"/>
    <circle cx="24" cy="24" r="0.5"/>
    <path d="M8 8h4m4 0h8M8 24h8m4 0h4"/>
    <path d="M8 8v8m0 4v8M24 8v8m0 4v8"/>
  </g>
</svg>


